<svg width="263" height="300" viewBox="0 0 263 300" fill="none" xmlns="http://www.w3.org/2000/svg">
<g clip-path="url(#clip0_2_2)">
<path d="M151.56 295C143.81 295 117.68 293 98.78 267.28C97.27 267.38 95.68 267.43 93.99 267.43C87.4778 267.339 80.9794 266.805 74.54 265.83C73.1617 265.64 71.8532 265.107 70.7348 264.28C69.6164 263.452 68.7239 262.357 68.1394 261.094C67.5549 259.832 67.2972 258.443 67.3899 257.054C67.4826 255.666 67.9228 254.324 68.67 253.15C69.7967 251.37 70.83 249.607 71.77 247.86C65.34 247.86 58.77 247.48 52.22 246.86C50.8273 246.726 49.491 246.242 48.3351 245.453C47.1792 244.665 46.2411 243.597 45.6078 242.35C44.9745 241.102 44.6665 239.715 44.7123 238.316C44.7581 236.918 45.1563 235.554 45.87 234.35C49.089 228.979 51.968 223.411 54.49 217.68C46.0497 214.483 37.8229 210.749 29.86 206.5C28.5319 205.792 27.4212 204.737 26.6467 203.447C25.8722 202.156 25.4631 200.68 25.4631 199.175C25.4631 197.67 25.8722 196.194 26.6467 194.903C27.4212 193.613 28.5319 192.558 29.86 191.85C38.7319 187.178 47.302 181.955 55.52 176.21C39.3715 167.293 23.6847 157.564 8.51999 147.06C7.28661 146.2 6.30961 145.022 5.69311 143.65C5.0766 142.279 4.84368 140.766 5.01918 139.273C5.19467 137.78 5.772 136.362 6.68964 135.171C7.60728 133.98 8.83086 133.06 10.23 132.51C27.87 125.57 48.23 119.25 73.97 112.74C70.77 104.92 68.15 96.8 65.41 88.3C60.87 74.3 56.19 59.77 48.57 46.44C47.763 45.0239 47.3898 43.4019 47.4966 41.7755C47.6034 40.1491 48.1856 38.5898 49.1708 37.2914C50.1561 35.993 51.5011 35.0126 53.0387 34.4719C54.5763 33.9312 56.2389 33.854 57.82 34.25C83.35 40.59 104.54 50.72 122.32 65.12C123.819 48.4555 122.122 31.6579 117.32 15.63C116.847 14.0263 116.872 12.3169 117.392 10.7278C117.912 9.13872 118.901 7.74469 120.23 6.73001C121.551 5.70883 123.15 5.11082 124.816 5.01445C126.483 4.91808 128.14 5.32786 129.57 6.19001C150.381 18.6932 167.562 36.4191 179.41 57.61C188.162 49.0529 193.863 37.8603 195.64 25.75C195.892 23.983 196.711 22.3456 197.973 21.0834C199.236 19.8213 200.873 19.0025 202.64 18.75C203.053 18.6823 203.471 18.6489 203.89 18.65C205.45 18.6439 206.98 19.0803 208.302 19.9087C209.625 20.7371 210.685 21.9234 211.36 23.33C220.96 43.28 222.53 65 216.02 89.72C217.273 89.78 218.503 89.81 219.71 89.81C228.472 89.9425 237.143 88.0103 245.02 84.17C246.548 83.4014 248.277 83.1233 249.969 83.3736C251.662 83.6239 253.235 84.3905 254.476 85.5686C255.716 86.7468 256.563 88.2791 256.9 89.9563C257.237 91.6336 257.049 93.374 256.36 94.94C249.1 111.43 239.45 124.71 226.94 135.36C234.07 143.29 241.51 147.57 249.6 148.36C251.321 148.539 252.944 149.25 254.241 150.396C255.539 151.541 256.446 153.063 256.837 154.748C257.228 156.434 257.083 158.2 256.422 159.8C255.761 161.399 254.617 162.752 253.15 163.67C242.23 170.5 233.54 177.67 226.75 185.67C234.748 191.882 243.095 197.632 251.75 202.89C253.254 203.811 254.424 205.188 255.093 206.819C255.762 208.451 255.893 210.253 255.469 211.965C255.044 213.677 254.086 215.208 252.732 216.338C251.378 217.468 249.7 218.138 247.94 218.25C233.64 219.19 223.07 222.47 215.79 228.25C219.183 232.904 223.487 236.82 228.44 239.76C229.887 240.645 231.028 241.953 231.711 243.506C232.393 245.059 232.584 246.784 232.257 248.448C231.931 250.113 231.102 251.638 229.884 252.818C228.665 253.998 227.114 254.777 225.44 255.05C222.818 255.477 220.166 255.691 217.51 255.69V255.69C216.58 255.69 215.64 255.69 214.71 255.61C215.23 256.61 215.78 257.47 216.36 258.35C217.187 259.602 217.66 261.055 217.728 262.554C217.795 264.054 217.456 265.543 216.745 266.865C216.035 268.187 214.979 269.292 213.691 270.062C212.403 270.832 210.931 271.239 209.43 271.24C209.133 271.238 208.836 271.222 208.54 271.19C203.801 270.75 199.136 269.708 194.66 268.09C193.265 269.517 191.753 270.824 190.14 272C182.93 286.29 169.38 294.66 152.75 295H151.56Z" fill="white"/>
<path d="M125.27 10C125.868 10.0034 126.455 10.1656 126.97 10.47C148.64 23.44 165.83 42 178.02 65.64C190.84 54.76 198.21 42 200.55 26.5C200.656 25.8015 200.983 25.1555 201.484 24.6568C201.984 24.1582 202.631 23.8333 203.33 23.73C203.497 23.7201 203.663 23.7201 203.83 23.73C204.456 23.7239 205.071 23.8966 205.603 24.2278C206.134 24.5591 206.56 25.0351 206.83 25.6C216.68 45.88 217.58 68.33 209.59 94.2C212.96 94.6249 216.353 94.842 219.75 94.85C229.284 94.9871 238.716 92.8732 247.28 88.68C247.738 88.4468 248.246 88.3268 248.76 88.33C249.307 88.3333 249.845 88.4727 250.325 88.7355C250.805 88.9983 251.212 89.3763 251.509 89.8355C251.807 90.2947 251.986 90.8207 252.029 91.3661C252.073 91.9115 251.981 92.4592 251.76 92.96C244.09 110.4 233.65 124.06 219.83 134.71C228.83 146.2 238.36 152.32 249.07 153.42C249.756 153.488 250.404 153.77 250.922 154.225C251.441 154.681 251.803 155.287 251.959 155.959C252.114 156.632 252.055 157.336 251.79 157.972C251.525 158.609 251.067 159.147 250.48 159.51C237.32 167.73 227.25 176.51 219.69 186.46C228.994 194.043 238.814 200.97 249.08 207.19C249.679 207.556 250.146 208.104 250.413 208.754C250.679 209.403 250.732 210.121 250.562 210.803C250.392 211.484 250.01 212.094 249.47 212.543C248.93 212.992 248.261 213.257 247.56 213.3C229.94 214.46 217.4 219.08 209.24 227.41C213.249 234.259 218.943 239.97 225.78 244C226.356 244.353 226.811 244.874 227.082 245.493C227.354 246.112 227.429 246.799 227.299 247.462C227.168 248.126 226.837 248.733 226.351 249.203C225.865 249.672 225.247 249.982 224.58 250.09C218.589 251.058 212.464 250.793 206.58 249.31C207.871 253.472 209.735 257.433 212.12 261.08C212.448 261.579 212.636 262.157 212.662 262.753C212.688 263.35 212.553 263.942 212.27 264.468C211.987 264.994 211.567 265.434 211.055 265.74C210.543 266.047 209.957 266.209 209.36 266.21H209C202.52 265.5 197.48 264.16 193.25 262.04C191.232 264.594 188.834 266.823 186.14 268.65C179.93 281.9 167.72 289.65 152.58 290H151.58C135.99 290 115.19 282.62 101.22 262C98.8473 262.282 96.4593 262.415 94.07 262.4C87.7888 262.308 81.5211 261.79 75.31 260.85C74.7678 260.772 74.2535 260.561 73.8134 260.235C73.3734 259.909 73.0214 259.478 72.7892 258.982C72.5571 258.486 72.452 257.94 72.4836 257.393C72.5151 256.846 72.6823 256.316 72.97 255.85C75.631 251.705 77.9103 247.327 79.78 242.77C77.54 242.837 75.2833 242.873 73.01 242.88C66.36 242.88 59.58 242.55 52.78 241.88C52.2226 241.828 51.6876 241.635 51.2248 241.32C50.7621 241.005 50.3868 240.578 50.1341 240.079C49.8813 239.579 49.7594 239.024 49.7797 238.464C49.8 237.905 49.9618 237.36 50.25 236.88C54.4824 229.816 58.1376 222.422 61.18 214.77C51.2283 211.264 41.5487 207.03 32.22 202.1C31.691 201.818 31.2486 201.397 30.9401 200.882C30.6317 200.368 30.4688 199.78 30.4688 199.18C30.4688 198.58 30.6317 197.992 30.9401 197.478C31.2486 196.963 31.691 196.542 32.22 196.26C43.629 190.269 54.5316 183.359 64.82 175.6C46.4131 165.76 28.584 154.876 11.42 143C10.9275 142.658 10.5372 142.188 10.2908 141.642C10.0444 141.095 9.9511 140.492 10.0209 139.896C10.0908 139.301 10.3211 138.735 10.6872 138.26C11.0534 137.785 11.5417 137.419 12.1 137.2C30.8 129.85 52.69 123.2 80.93 116.2C76.71 106.96 73.55 97.2 70.2 86.8C65.6 72.53 60.83 57.8 52.95 44C52.6315 43.4357 52.4846 42.7908 52.5272 42.1442C52.5699 41.4977 52.8002 40.8776 53.19 40.36C53.4911 39.943 53.886 39.6026 54.3428 39.3664C54.7997 39.1301 55.3057 39.0046 55.82 39C56.0899 38.9981 56.3589 39.0318 56.62 39.1C84.79 46.1 107.5 57.82 126.02 74.92C129.45 55.42 128.13 35 122.09 14.22C121.949 13.7276 121.925 13.2092 122.018 12.7056C122.112 12.202 122.321 11.727 122.629 11.318C122.937 10.9089 123.336 10.577 123.794 10.3483C124.253 10.1196 124.758 10.0004 125.27 10V10ZM125.27 0C122.325 0.00696334 119.464 0.983988 117.13 2.78C115.012 4.40536 113.436 6.63339 112.608 9.17132C111.779 11.7093 111.738 14.4384 112.49 17C116.197 29.4751 118.007 42.4366 117.86 55.45C101.16 43.63 81.75 35 59.02 29.4C56.4906 28.774 53.8332 28.9036 51.3768 29.7728C48.9203 30.642 46.7728 32.2125 45.2 34.29C43.6238 36.367 42.6949 38.8627 42.5294 41.4648C42.364 44.0669 42.9695 46.6601 44.27 48.92C51.63 61.8 56.27 76.05 60.67 89.82C62.84 96.53 64.93 102.99 67.29 109.3C43.9 115.37 24.99 121.3 8.43001 127.86C6.18835 128.742 4.22811 130.216 2.75829 132.125C1.28846 134.033 0.364166 136.305 0.0839515 138.697C-0.196263 141.09 0.178112 143.514 1.16716 145.71C2.1562 147.907 3.72283 149.794 5.70001 151.17C18.45 160 31.96 168.55 46.02 176.6C40.23 180.35 34.11 183.94 27.54 187.43C25.4131 188.561 23.6331 190.249 22.3899 192.312C21.1466 194.376 20.4867 196.738 20.4806 199.147C20.4744 201.556 21.1222 203.922 22.3549 205.992C23.5876 208.061 25.3589 209.758 27.48 210.9C34.056 214.419 40.8157 217.584 47.73 220.38C45.91 224.15 43.87 227.93 41.57 231.79C40.4385 233.716 39.8097 235.896 39.7415 238.13C39.6733 240.363 40.1679 242.577 41.1798 244.569C42.1917 246.561 43.6883 248.266 45.5319 249.528C47.3755 250.79 49.507 251.568 51.73 251.79C55.6 252.16 59.48 252.44 63.33 252.61C62.5793 254.486 62.2655 256.509 62.4124 258.525C62.5592 260.541 63.1627 262.496 64.1774 264.244C65.192 265.992 66.5911 267.486 68.2686 268.613C69.9462 269.741 71.8583 270.471 73.86 270.75C80.5344 271.764 87.2698 272.325 94.02 272.43C94.84 272.43 95.65 272.43 96.43 272.43C103.122 280.961 111.631 287.893 121.34 292.72C130.717 297.436 141.054 299.928 151.55 300H152.82C161.76 299.891 170.5 297.335 178.09 292.61C184.801 288.302 190.287 282.337 194.02 275.29C194.65 274.8 195.27 274.29 195.87 273.77C199.814 274.937 203.858 275.73 207.95 276.14C208.45 276.19 208.95 276.22 209.4 276.22C211.356 276.219 213.289 275.786 215.059 274.953C216.829 274.12 218.394 272.907 219.642 271.4C220.89 269.893 221.79 268.13 222.279 266.236C222.768 264.341 222.833 262.362 222.47 260.44C223.72 260.33 224.96 260.17 226.2 259.97C228.886 259.54 231.376 258.297 233.334 256.408C235.292 254.519 236.623 252.075 237.148 249.405C237.674 246.736 237.368 243.97 236.272 241.48C235.176 238.99 233.343 236.896 231.02 235.48C228.163 233.758 225.533 231.685 223.19 229.31C229.38 225.94 237.67 223.94 248.19 223.24C251.006 223.054 253.69 221.978 255.854 220.167C258.018 218.357 259.551 215.905 260.231 213.166C260.911 210.427 260.703 207.543 259.637 204.93C258.571 202.318 256.702 200.111 254.3 198.63C246.81 194 240.12 189.5 234.1 185C240.618 178.483 247.897 172.775 255.78 168C258.129 166.529 259.96 164.362 261.018 161.8C262.077 159.238 262.308 156.41 261.682 153.71C261.055 151.01 259.602 148.573 257.524 146.739C255.446 144.906 252.847 143.766 250.09 143.48C244.56 142.91 239.3 140.33 234.16 135.64C245.34 125.14 254.16 112.41 260.91 97C262.027 94.4911 262.341 91.6979 261.808 89.0037C261.276 86.3094 259.922 83.8458 257.934 81.9509C255.946 80.056 253.421 78.8224 250.704 78.4194C247.987 78.0165 245.212 78.4638 242.76 79.7C236.397 82.8179 229.442 84.5429 222.36 84.76C227.36 61.41 225.18 40.52 215.79 21.19C214.552 18.6345 212.529 16.5424 210.016 15.2196C207.504 13.8969 204.634 13.413 201.826 13.8388C199.019 14.2646 196.421 15.5777 194.414 17.586C192.406 19.5943 191.095 22.1924 190.67 25C189.425 33.8737 185.804 42.2458 180.19 49.23C168.158 29.8459 151.671 13.6156 132.1 1.89C130.035 0.65666 127.675 0.00368695 125.27 0V0Z" fill="white"/>
<path d="M248.73 156.67C235.55 155.31 224.61 147.02 215.19 134C228.97 124.08 240.45 110.43 248.73 91.59C236.183 97.9033 221.677 99.66 205.21 96.86C213.49 72.35 214.44 48.86 203.82 27C201.02 45.47 191.36 59.63 176.93 70.8C165 46.15 147.93 26.85 125.27 13.31C131.88 36.09 133.22 58.8 128.07 81.51C107.63 60.91 82.96 49.06 55.83 42.32C70.28 67.61 74.33 95.64 85.66 118.41C58.93 124.9 34.48 131.92 13.31 140.24C31.7658 153.033 50.9996 164.666 70.9 175.07C59.3005 184.235 46.8775 192.306 33.79 199.18C43.9473 204.547 54.5137 209.101 65.39 212.8C62.0712 221.757 57.9302 230.387 53.02 238.58C63.4873 239.615 74.0197 239.826 84.52 239.21C82.3464 245.686 79.377 251.866 75.68 257.61C85.19 258.93 93.91 259.61 100.68 258.75C115.03 281.93 137.8 288.9 152.51 288.59C167.22 288.28 178.96 280.89 184.99 267.69C188.557 265.363 191.579 262.293 193.85 258.69C198.14 261.01 203.12 262.26 209.31 262.94C205.648 257.286 203.105 250.982 201.82 244.37C208.856 247.204 216.534 248.055 224.02 246.83C215.987 242.061 209.456 235.131 205.17 226.83C214.62 215.83 229.43 211.1 247.31 209.92C236.012 203.095 225.26 195.406 215.15 186.92C223.69 175 235.22 165.11 248.73 156.67Z" fill="black"/>
<path d="M98.96 255.93C98.1162 254.944 97.4801 253.798 97.09 252.56C92.1047 252.586 87.1234 252.275 82.18 251.63C84.9677 246.776 87.2593 241.653 89.02 236.34C89.1658 235.905 89.202 235.442 89.1252 234.99C89.0485 234.538 88.8612 234.112 88.58 233.75C88.3005 233.387 87.9367 233.099 87.5202 232.909C87.1037 232.719 86.647 232.633 86.19 232.66C77.2982 233.188 68.3808 233.108 59.5 232.42C63.5591 225.236 67.0368 217.739 69.9 210C70.0281 209.65 70.0851 209.277 70.0677 208.905C70.0503 208.532 69.9589 208.166 69.7988 207.829C69.6387 207.492 69.4131 207.191 69.1352 206.942C68.8572 206.693 68.5325 206.502 68.18 206.38C59.1099 203.286 50.2482 199.612 41.65 195.38C53.65 188.7 63.06 185.38 72.65 177.26C75.19 175.11 76.02 173 75.8 171.67C75.6025 170.544 74.9885 169.534 74.08 168.84C56.2177 159.473 38.8878 149.124 22.17 137.84C20 138.6 17.87 139.46 15.71 140.22C32.4217 151.677 49.7549 162.2 67.63 171.74C67.1 172.15 66.55 172.54 66.02 172.95C66.1605 173.019 66.2853 173.117 66.3868 173.236C66.4883 173.356 66.5643 173.494 66.6102 173.644C66.6561 173.794 66.6709 173.952 66.6536 174.107C66.6364 174.263 66.5875 174.414 66.51 174.55C64.77 177.7 62.02 179.87 59.22 182C56.16 184.38 52.98 186.62 49.74 188.76C44.81 192.01 39.74 195.03 34.74 198.09C44.0453 203.008 53.6977 207.239 63.62 210.75C63.31 211.54 62.99 212.34 62.67 213.13C62.7922 213.178 62.9036 213.251 62.9979 213.342C63.0922 213.434 63.1676 213.543 63.2196 213.664C63.2716 213.785 63.2993 213.914 63.3011 214.046C63.3029 214.177 63.2787 214.308 63.23 214.43C61.84 218.92 59.44 222.98 57.23 227.09C55.59 230.09 54.13 233.22 52.51 236.24C52.7299 236.627 53.0387 236.955 53.4108 237.199C53.783 237.442 54.2077 237.593 54.65 237.64C63.8545 238.533 73.1082 238.814 82.35 238.48C81.95 239.48 81.52 240.48 81.07 241.48C81.2342 241.533 81.3845 241.622 81.51 241.741C81.6354 241.859 81.7328 242.004 81.7951 242.165C81.8574 242.326 81.8829 242.499 81.8699 242.671C81.857 242.843 81.8057 243.01 81.72 243.16C80.13 245.94 78.98 248.93 77.34 251.69C76.64 252.87 75.9 254.04 75.15 255.19C75.3611 255.567 75.6555 255.891 76.0108 256.137C76.3661 256.383 76.7728 256.545 77.2 256.61C87.2 257.99 94.74 258.43 100.73 257.97C100.11 257.33 99.52 256.65 98.96 255.93Z" fill="url(#paint0_linear_2_2)"/>
<path d="M125.79 77.24C125.32 76.88 124.86 76.51 124.4 76.14L124.06 75.88L123.9 75.75L123.2 75.24C122.71 74.89 122.2 74.57 121.69 74.24C121.5 74.13 121.3 74.03 121.1 73.93C120.99 74.59 120.89 75.26 120.77 75.93C103.64 59.93 82.77 48.54 57.41 41.34C58.1334 43.6395 59.0639 45.8686 60.19 48C84.51 55.53 104.31 67.19 120.47 83.47C121.19 84.2 123.04 85.78 126.83 85.21C129.53 84.81 130.53 83.32 130.75 82.32C131.1 80.78 125.86 79.02 126.15 77.47C126.022 77.4073 125.901 77.3301 125.79 77.24V77.24Z" fill="url(#paint1_linear_2_2)"/>
<path d="M173.55 65.32L172.28 66.43C161.29 45 146.22 27.69 127.41 15C127.41 17.34 127.53 19.68 127.66 22C144.96 34.57 158.77 51.37 168.79 72.06C169.401 72.9717 170.304 73.6488 171.35 73.98C172.18 74.18 176.83 74.63 178.65 73.06C179.78 72.06 175.36 71.2 176.47 70.26C175.55 68.59 174.37 67 173.55 65.32Z" fill="url(#paint2_linear_2_2)"/>
<path d="M245.85 156C245.718 155.431 245.412 154.917 244.975 154.53C244.538 154.143 243.991 153.902 243.41 153.84C232.41 152.72 222.65 146.4 213.51 134.55C226.8 124.41 237 111.45 244.59 95.1C242.145 95.7276 239.668 96.2217 237.17 96.58C233.57 97.1 229.94 97.43 226.32 97.7C223.83 97.89 221.32 98.18 218.86 98.31C215.09 98.52 210.27 98.24 207.86 95.02C206.36 94.9 204.86 94.75 203.31 94.55C210.42 71.86 210.67 51.81 204.06 33.55C202.7 35.69 201.5 37.93 200.3 40.17C205.07 56.81 203.96 75.17 196.96 95.91C196.829 96.2947 196.783 96.7035 196.826 97.1077C196.869 97.5119 197 97.9017 197.21 98.25C197.419 98.5978 197.701 98.8966 198.035 99.1261C198.37 99.3556 198.75 99.5104 199.15 99.58C213.21 101.94 226.05 101.09 237.42 97.03C230.536 110.785 220.429 122.673 207.96 131.68C207.658 131.893 207.401 132.164 207.207 132.479C207.013 132.794 206.885 133.144 206.83 133.51C206.711 134.244 206.888 134.995 207.32 135.6C216.02 147.6 225.4 155.02 235.83 158.05C223.77 166.31 214.4 175.26 207.31 185.28C206.905 185.85 206.727 186.55 206.812 187.244C206.897 187.938 207.239 188.575 207.77 189.03C215.868 195.912 224.413 202.249 233.35 208C217.17 210.24 205.35 215.86 197.47 225C197.105 225.424 196.874 225.948 196.808 226.503C196.742 227.059 196.844 227.622 197.1 228.12C200.325 234.434 204.831 240.005 210.33 244.48C206.475 244.333 202.664 243.615 199.02 242.35C198.17 246.14 197.6 250.09 196.02 253.66C196.71 255.566 197.504 257.432 198.4 259.25C196.935 258.955 195.489 258.571 194.07 258.1C194.064 258.223 194.033 258.344 193.98 258.456C193.927 258.567 193.852 258.667 193.76 258.75C193.37 259.08 192.99 259.43 192.62 259.75C193.386 260.036 194.092 260.463 194.7 261.01C194.883 261.189 194.999 261.426 195.03 261.68H206.28C206.224 261.559 206.161 261.442 206.09 261.33C203.517 257.393 201.542 253.096 200.23 248.58C201.65 248.97 203.09 249.27 204.52 249.52V248.3H218.92V249.59C219.483 249.496 220.004 249.232 220.412 248.834C220.821 248.436 221.098 247.922 221.207 247.362C221.316 246.802 221.251 246.222 221.021 245.7C220.791 245.177 220.407 244.738 219.92 244.44C212.893 240.288 207.069 234.377 203.02 227.29C211.25 218.7 224.02 213.95 241.93 212.76C242.526 212.724 243.094 212.498 243.553 212.116C244.011 211.734 244.335 211.215 244.478 210.636C244.621 210.056 244.575 209.446 244.347 208.895C244.119 208.343 243.721 207.879 243.21 207.57C232.788 201.26 222.826 194.219 213.4 186.5C221.02 176.39 231.26 167.39 244.62 159.05C245.118 158.734 245.505 158.27 245.726 157.723C245.946 157.176 245.99 156.573 245.85 156V156Z" fill="url(#paint3_linear_2_2)"/>
<path d="M248.73 156.67C235.55 155.31 224.61 147.02 215.19 134C228.97 124.08 240.45 110.43 248.73 91.59C236.183 97.9033 221.677 99.66 205.21 96.86C213.49 72.35 214.44 48.86 203.82 27C201.02 45.47 191.36 59.63 176.93 70.8C165 46.15 147.93 26.85 125.27 13.31C131.88 36.09 133.22 58.8 128.07 81.51C107.63 60.91 82.96 49.06 55.83 42.32C70.28 67.61 74.33 95.64 85.66 118.41C58.93 124.9 34.48 131.92 13.31 140.24C31.7658 153.033 50.9996 164.666 70.9 175.07C59.3005 184.235 46.8775 192.306 33.79 199.18C43.9473 204.547 54.5137 209.101 65.39 212.8C62.0712 221.757 57.9302 230.387 53.02 238.58C63.4873 239.615 74.0197 239.826 84.52 239.21C82.3464 245.686 79.377 251.866 75.68 257.61C85.19 258.93 93.91 259.61 100.68 258.75C115.03 281.93 137.8 288.9 152.51 288.59C167.22 288.28 178.96 280.89 184.99 267.69C188.557 265.363 191.579 262.293 193.85 258.69C198.14 261.01 203.12 262.26 209.31 262.94C205.648 257.286 203.105 250.982 201.82 244.37C208.856 247.204 216.534 248.055 224.02 246.83C215.987 242.061 209.456 235.131 205.17 226.83C214.62 215.83 229.43 211.1 247.31 209.92C236.012 203.095 225.26 195.406 215.15 186.92C223.69 175 235.22 165.11 248.73 156.67Z" fill="url(#paint4_linear_2_2)"/>
<path d="M248.73 156.67C235.55 155.31 224.61 147.02 215.19 134C228.97 124.08 240.45 110.43 248.73 91.59C236.183 97.9033 221.677 99.66 205.21 96.86C213.49 72.35 214.44 48.86 203.82 27C201.02 45.47 191.36 59.63 176.93 70.8C165 46.15 147.93 26.85 125.27 13.31C131.88 36.09 133.22 58.8 128.07 81.51C107.63 60.91 82.96 49.06 55.83 42.32C70.28 67.61 74.33 95.64 85.66 118.41C58.93 124.9 34.48 131.92 13.31 140.24C31.7658 153.033 50.9996 164.666 70.9 175.07C59.3005 184.235 46.8775 192.306 33.79 199.18C43.9473 204.547 54.5137 209.101 65.39 212.8C62.0712 221.757 57.9302 230.387 53.02 238.58C63.4873 239.615 74.0197 239.826 84.52 239.21C82.3464 245.686 79.377 251.866 75.68 257.61C85.19 258.93 93.91 259.61 100.68 258.75C115.03 281.93 137.8 288.9 152.51 288.59C167.22 288.28 178.96 280.89 184.99 267.69C188.557 265.363 191.579 262.293 193.85 258.69C198.14 261.01 203.12 262.26 209.31 262.94C205.648 257.286 203.105 250.982 201.82 244.37C208.856 247.204 216.534 248.055 224.02 246.83C215.987 242.061 209.456 235.131 205.17 226.83C214.62 215.83 229.43 211.1 247.31 209.92C236.012 203.095 225.26 195.406 215.15 186.92C223.69 175 235.22 165.11 248.73 156.67Z" fill="url(#paint5_linear_2_2)"/>
<path d="M248.73 156.67C235.55 155.31 224.61 147.02 215.19 134C228.97 124.08 240.45 110.43 248.73 91.59C236.183 97.9033 221.677 99.66 205.21 96.86C213.49 72.35 214.44 48.86 203.82 27C201.02 45.47 191.36 59.63 176.93 70.8C165 46.15 147.93 26.85 125.27 13.31C131.88 36.09 133.22 58.8 128.07 81.51C107.63 60.91 82.96 49.06 55.83 42.32C70.28 67.61 74.33 95.64 85.66 118.41C58.93 124.9 34.48 131.92 13.31 140.24C31.7658 153.033 50.9996 164.666 70.9 175.07C59.3005 184.235 46.8775 192.306 33.79 199.18C43.9473 204.547 54.5137 209.101 65.39 212.8C62.0712 221.757 57.9302 230.387 53.02 238.58C63.4873 239.615 74.0197 239.826 84.52 239.21C82.3464 245.686 79.377 251.866 75.68 257.61C85.19 258.93 93.91 259.61 100.68 258.75C115.03 281.93 137.8 288.9 152.51 288.59C167.22 288.28 178.96 280.89 184.99 267.69C188.557 265.363 191.579 262.293 193.85 258.69C198.14 261.01 203.12 262.26 209.31 262.94C205.648 257.286 203.105 250.982 201.82 244.37C208.856 247.204 216.534 248.055 224.02 246.83C215.987 242.061 209.456 235.131 205.17 226.83C214.62 215.83 229.43 211.1 247.31 209.92C236.012 203.095 225.26 195.406 215.15 186.92C223.69 175 235.22 165.11 248.73 156.67Z" fill="#01B0C5"/>
<path d="M249.02 153.87C238.02 152.75 228.26 146.43 219.12 134.58C233.12 123.94 243.61 110.22 251.3 92.72C251.531 92.191 251.594 91.6036 251.48 91.0377C251.366 90.4718 251.08 89.9548 250.661 89.5571C250.243 89.1593 249.712 88.9002 249.141 88.8148C248.57 88.7295 247.987 88.822 247.47 89.08C236.37 94.66 223.41 96.5 208.9 94.58C217.04 68.58 216.2 46.07 206.35 25.77C206.087 25.2331 205.659 24.7942 205.129 24.5172C204.599 24.2402 203.994 24.1396 203.403 24.2299C202.812 24.3203 202.265 24.5969 201.841 25.0196C201.418 25.4422 201.141 25.9889 201.05 26.58C198.66 42.32 191.05 55.38 177.89 66.43C165.69 42.6 148.49 23.93 126.71 10.9C126.226 10.6113 125.666 10.4748 125.104 10.5082C124.541 10.5417 124.002 10.7435 123.555 11.0874C123.109 11.4314 122.776 11.9016 122.601 12.4371C122.425 12.9725 122.414 13.5484 122.57 14.09C128.73 35.29 129.99 56.09 126.35 75.92C107.78 58.55 84.88 46.64 56.5 39.59C55.9666 39.4594 55.4066 39.488 54.8893 39.6722C54.3719 39.8564 53.9199 40.1881 53.589 40.6264C53.2582 41.0647 53.063 41.5904 53.0276 42.1384C52.9923 42.6864 53.1182 43.2328 53.39 43.71C61.29 57.54 66.02 72.31 70.68 86.6C74.08 97.13 77.31 107.13 81.68 116.51C53.19 123.51 31.09 130.25 12.32 137.63C11.8474 137.817 11.4344 138.129 11.125 138.532C10.8155 138.935 10.6212 139.415 10.5627 139.919C10.5042 140.424 10.5838 140.936 10.7929 141.399C11.0019 141.862 11.3327 142.26 11.75 142.55C29.1112 154.589 47.1584 165.608 65.8 175.55C55.3098 183.524 44.1748 190.612 32.51 196.74C32.064 196.974 31.6897 197.324 31.4273 197.754C31.1649 198.184 31.0241 198.676 31.02 199.18C31.0213 199.688 31.1594 200.187 31.4198 200.623C31.6803 201.059 32.0534 201.418 32.5 201.66C41.9304 206.66 51.721 210.948 61.79 214.49C58.7116 222.339 54.9854 229.919 50.65 237.15C50.4089 237.556 50.2742 238.017 50.2583 238.489C50.2425 238.962 50.346 239.43 50.5594 239.852C50.7727 240.274 51.089 240.635 51.4789 240.902C51.8688 241.169 52.3197 241.333 52.79 241.38C61.9945 242.273 71.2483 242.554 80.49 242.22C78.5608 247.065 76.1698 251.713 73.35 256.1C73.0975 256.498 72.9493 256.953 72.9189 257.424C72.8885 257.894 72.977 258.365 73.1762 258.792C73.3754 259.22 73.679 259.59 74.0588 259.869C74.4387 260.148 74.8827 260.327 75.35 260.39C86.61 261.95 94.81 262.32 101.13 261.54C101.523 261.489 101.901 261.356 102.24 261.15C101.82 260.57 101.4 260 101.01 259.4C100.287 258.376 99.7054 257.259 99.28 256.08C92.9661 256.499 86.6257 256.265 80.36 255.38C83.1563 250.526 85.4579 245.404 87.23 240.09C87.3749 239.655 87.4109 239.191 87.3348 238.739C87.2586 238.287 87.0727 237.861 86.7933 237.498C86.5138 237.134 86.1495 236.845 85.7322 236.656C85.3149 236.466 84.8575 236.382 84.4 236.41C75.508 236.928 66.5912 236.848 57.71 236.17C61.7369 228.989 65.1845 221.499 68.02 213.77C68.1481 213.42 68.2051 213.047 68.1877 212.675C68.1703 212.302 68.0789 211.936 67.9188 211.599C67.7587 211.262 67.5331 210.961 67.2552 210.712C66.9773 210.463 66.6525 210.272 66.3 210.15C57.2273 207.054 48.3625 203.38 39.76 199.15C51.306 192.786 62.3038 185.474 72.64 177.29C73.004 176.998 73.2897 176.62 73.4712 176.191C73.6527 175.761 73.7244 175.293 73.6797 174.828C73.6351 174.364 73.4755 173.918 73.2154 173.531C72.9554 173.143 72.603 172.827 72.19 172.61C53.975 163.079 36.3135 152.525 19.29 141C37.5 134.16 58.98 127.82 86.29 121.19C86.7043 121.094 87.0912 120.905 87.4212 120.637C87.7512 120.369 88.0156 120.029 88.1941 119.643C88.3726 119.257 88.4605 118.835 88.4511 118.41C88.4418 117.985 88.3353 117.568 88.14 117.19C83.22 107.29 79.71 96.42 75.99 84.91C71.91 72.29 67.72 59.29 61.34 46.72C87.7 54.18 108.92 66.25 126.05 83.51C126.404 83.866 126.847 84.1206 127.333 84.2472C127.819 84.3739 128.33 84.368 128.813 84.2301C129.296 84.0923 129.733 83.8276 130.079 83.4635C130.425 83.0994 130.667 82.6493 130.78 82.16C135.36 62 135.02 41 129.83 19.54C148.75 32.35 163.73 50 174.41 72C174.591 72.3765 174.854 72.7078 175.179 72.9695C175.505 73.2313 175.885 73.4169 176.291 73.5128C176.698 73.6087 177.121 73.6124 177.529 73.5237C177.937 73.4349 178.32 73.256 178.65 73C192 62.66 200.57 50.59 204.65 36.3C210.82 54 210.11 73.58 202.55 96C202.42 96.3848 202.375 96.7933 202.418 97.1972C202.461 97.6012 202.591 97.991 202.799 98.3399C203.007 98.6887 203.288 98.9882 203.624 99.2179C203.959 99.4475 204.34 99.6018 204.74 99.67C218.81 102.03 231.64 101.18 243.01 97.12C236.129 110.877 226.021 122.766 213.55 131.77C213.25 131.985 212.996 132.258 212.803 132.572C212.609 132.886 212.479 133.235 212.42 133.599C212.362 133.963 212.376 134.336 212.461 134.694C212.547 135.053 212.703 135.392 212.92 135.69C221.61 147.69 230.99 155.11 241.42 158.14C229.36 166.4 220 175.35 212.9 185.37C212.494 185.94 212.316 186.642 212.403 187.337C212.49 188.031 212.835 188.668 213.37 189.12C221.491 195.976 230.06 202.283 239.02 208C222.84 210.24 211.02 215.86 203.13 225C202.767 225.425 202.538 225.949 202.472 226.504C202.406 227.059 202.507 227.622 202.76 228.12C205.986 234.436 210.496 240.008 216 244.48C211.541 244.286 207.146 243.343 203 241.69C202.53 241.506 202.019 241.452 201.521 241.533C201.023 241.615 200.556 241.829 200.169 242.153C199.783 242.478 199.49 242.9 199.323 243.376C199.156 243.853 199.121 244.365 199.22 244.86C200.224 249.836 201.871 254.66 204.12 259.21C201.11 258.634 198.199 257.624 195.48 256.21C194.41 257.75 193.48 259.38 192.48 260.94L192.68 261.07C197.05 263.44 202.29 264.89 209.17 265.65H209.48C209.986 265.646 210.482 265.506 210.915 265.244C211.348 264.983 211.703 264.61 211.942 264.164C212.182 263.718 212.297 263.216 212.275 262.71C212.254 262.204 212.096 261.714 211.82 261.29C209.251 257.351 207.276 253.055 205.96 248.54C212.037 250.206 218.4 250.547 224.62 249.54C225.186 249.448 225.71 249.185 226.121 248.786C226.532 248.387 226.811 247.871 226.92 247.309C227.029 246.746 226.963 246.164 226.731 245.64C226.498 245.116 226.11 244.676 225.62 244.38C218.593 240.228 212.769 234.317 208.72 227.23C216.96 218.64 229.72 213.89 247.63 212.7C248.223 212.659 248.787 212.431 249.243 212.049C249.698 211.668 250.02 211.151 250.164 210.574C250.307 209.998 250.264 209.39 250.04 208.84C249.817 208.289 249.425 207.824 248.92 207.51C238.468 201.225 228.476 194.204 219.02 186.5C226.64 176.39 236.88 167.39 250.24 159.05C250.737 158.74 251.125 158.282 251.349 157.741C251.574 157.2 251.623 156.602 251.491 156.031C251.359 155.46 251.051 154.945 250.612 154.558C250.173 154.17 249.623 153.93 249.04 153.87H249.02Z" fill="#01B0C5"/>
<path d="M119.36 193.66C133.189 193.66 144.4 182.198 144.4 168.06C144.4 153.922 133.189 142.46 119.36 142.46C105.531 142.46 94.32 153.922 94.32 168.06C94.32 182.198 105.531 193.66 119.36 193.66Z" stroke="white" stroke-width="2.81" stroke-linecap="round" stroke-linejoin="round"/>
<path d="M179.28 187.74C194.506 187.74 206.85 175.71 206.85 160.87C206.85 146.03 194.506 134 179.28 134C164.054 134 151.71 146.03 151.71 160.87C151.71 175.71 164.054 187.74 179.28 187.74Z" stroke="white" stroke-width="2.81" stroke-linecap="round" stroke-linejoin="round"/>
<path d="M152.82 176.94C156.45 189 161.76 213.84 152.71 216.03C143.66 218.22 141.17 198.35 141.17 198.35" stroke="white" stroke-width="2.81" stroke-linecap="round" stroke-linejoin="round"/>
<path d="M201.96 176.16C205.11 187.74 192.53 208.64 168.2 195.86" stroke="white" stroke-width="2.81" stroke-linecap="round" stroke-linejoin="round"/>
<path d="M90.86 193.66C97.47 204.66 107.23 207.38 119.97 202.2" stroke="white" stroke-width="2.81" stroke-linecap="round" stroke-linejoin="round"/>
<path opacity="0.4" d="M147.31 133.38C172.49 129.83 192.58 130.67 191.49 124.23C190.55 118.72 165.08 121.11 146.27 123.71C127.46 126.31 100.83 130.79 103.63 138.71C105.57 144.22 120.8 137.12 147.31 133.38Z" fill="#01B0C5"/>
<path d="M149.14 233.49C163.43 235.2 171.46 222.99 183.59 228.49C195.72 233.99 191.02 264.21 168.02 268.9C145.02 273.59 120.62 269.77 106.69 256.15C92.76 242.53 99.52 221.15 113.14 217.69C126.76 214.23 132.68 231.52 149.14 233.49Z" stroke="white" stroke-width="2.81" stroke-linecap="round" stroke-linejoin="round"/>
<path d="M151.12 233.64C151.16 233.893 151.21 234.143 151.27 234.39C152.27 238.8 154.86 241.96 157.06 241.46C159.26 240.96 160.24 236.99 159.25 232.59C156.613 233.371 153.869 233.726 151.12 233.64V233.64Z" stroke="white" stroke-width="2.81" stroke-linecap="round" stroke-linejoin="round"/>
<path d="M169.39 229.36L169.24 228.77C166.04 229.96 162.8 231.51 159.24 232.55C160.42 236.49 163.32 239.11 166 238.55C168.87 237.86 170.38 233.76 169.39 229.36Z" stroke="white" stroke-width="2.81" stroke-linecap="round" stroke-linejoin="round"/>
<path d="M169.26 228.76C169.26 228.76 169.26 228.82 169.26 228.85C170.14 232.74 172.75 235.47 175.09 234.94C177.43 234.41 178.58 230.94 177.77 227.1C174.851 227.077 171.957 227.642 169.26 228.76V228.76Z" stroke="white" stroke-width="2.81" stroke-linecap="round" stroke-linejoin="round"/>
<path d="M149.14 233.49C146.765 233.207 144.444 232.581 142.25 231.63V231.99C142.05 236.5 143.8 240.24 146.15 240.34C148.28 240.44 150.15 237.52 150.66 233.62C150.14 233.59 149.65 233.55 149.14 233.49Z" stroke="white" stroke-width="2.81" stroke-linecap="round" stroke-linejoin="round"/>
<path d="M135.08 227.45C134.98 227.77 134.9 228.1 134.82 228.45C133.82 232.85 134.73 236.81 136.82 237.29C138.7 237.71 140.91 235.24 142.07 231.58C139.597 230.461 137.253 229.076 135.08 227.45V227.45Z" stroke="white" stroke-width="2.81" stroke-linecap="round" stroke-linejoin="round"/>
<path d="M128.02 222C128.02 222.11 127.93 222.21 127.89 222.32C126.27 226.53 126.72 230.63 128.89 231.47C130.72 232.17 133.17 230.37 134.89 227.31C132.45 225.52 130.22 223.64 128.02 222Z" stroke="white" stroke-width="2.81" stroke-linecap="round" stroke-linejoin="round"/>
<path d="M120.51 217.84C119.02 221.54 119.28 225.08 121.25 226.05C123.22 227.02 126.02 225.2 128.02 222C125.776 220.19 123.235 218.782 120.51 217.84V217.84Z" stroke="white" stroke-width="2.81" stroke-linecap="round" stroke-linejoin="round"/>
<path d="M171.21 268C170.49 264.18 168.46 261.42 166.29 261.58C163.9 261.76 162.21 265.4 162.37 269.84C164.25 269.58 166.13 269.26 167.99 268.84C169.08 268.627 170.155 268.347 171.21 268V268Z" stroke="white" stroke-width="2.81" stroke-linecap="round" stroke-linejoin="round"/>
<path d="M152.56 270.71C155.56 270.6 158.56 270.34 161.62 269.93C161.5 265.75 159.76 262.44 157.46 262.34C154.96 262.27 152.77 266 152.56 270.71Z" stroke="white" stroke-width="2.81" stroke-linecap="round" stroke-linejoin="round"/>
<path d="M147.9 262C145.12 261.88 142.7 265.6 142.49 270.31C142.49 270.4 142.49 270.49 142.49 270.58C145.843 270.841 149.209 270.911 152.57 270.79V270.79C152.77 266 150.68 262.08 147.9 262Z" stroke="white" stroke-width="2.81" stroke-linecap="round" stroke-linejoin="round"/>
<path d="M138.02 260.07C134.91 259.66 131.84 263.55 131.1 268.78C134.823 269.65 138.608 270.235 142.42 270.53C142.42 270.53 142.42 270.53 142.42 270.45C143.14 265.13 141.17 260.48 138.02 260.07Z" stroke="white" stroke-width="2.81" stroke-linecap="round" stroke-linejoin="round"/>
<path d="M126.67 259.42C124.14 258.85 121.36 261.21 119.79 264.96C123.2 266.499 126.745 267.721 130.38 268.61C131.02 264 129.45 260.05 126.67 259.42Z" stroke="white" stroke-width="2.81" stroke-linecap="round" stroke-linejoin="round"/>
<path d="M117.6 255.94C115.6 255.17 113 256.94 111.26 260.02C113.738 261.815 116.379 263.372 119.15 264.67C120.52 260.65 119.87 256.81 117.6 255.94Z" stroke="white" stroke-width="2.81" stroke-linecap="round" stroke-linejoin="round"/>
<path d="M106.66 256.15C108.139 257.598 109.724 258.935 111.4 260.15C112.63 256.66 112.21 253.34 110.4 252.64C109.02 252.11 107.23 253.24 105.82 255.3C106.09 255.57 106.37 255.86 106.66 256.15Z" stroke="white" stroke-width="2.81" stroke-linecap="round" stroke-linejoin="round"/>
<path opacity="0.3" d="M200.56 189C199.88 200.94 199.24 208.21 197.88 217.63C204.39 216.49 209.37 210.35 209.37 202.92C209.432 199.991 208.629 197.108 207.062 194.633C205.495 192.157 203.234 190.198 200.56 189Z" fill="#01B0C5"/>
<path opacity="0.3" d="M86.95 191.25C83.7735 191.997 80.9604 193.837 79.0023 196.447C77.0441 199.058 76.0653 202.273 76.2368 205.532C76.4083 208.79 77.7192 211.885 79.9406 214.276C82.162 216.666 85.1526 218.2 88.39 218.61C87.3081 209.532 86.8271 200.392 86.95 191.25Z" fill="#01B0C5"/>
<path d="M144.4 245.72C139.97 245.24 135.49 248.98 132.72 253.21C129.49 258.13 128.88 265.12 129.72 268.43C133.333 269.349 137.01 269.998 140.72 270.37C141.691 269.47 142.32 268.261 142.5 266.95C142.653 265.129 142.586 263.295 142.3 261.49C142.096 259.675 142.394 257.838 143.16 256.18C144.02 254.45 147.59 252.44 148.5 250.78C149.41 249.12 148.83 246.21 144.4 245.72Z" stroke="white" stroke-width="2.81" stroke-linecap="round" stroke-linejoin="round"/>
<path d="M199.76 142.89C199.6 116.33 177.66 83.79 144.4 84.52C121.4 85.02 96.26 105.73 90.03 151.36C83.8 196.99 88.16 225.36 92.94 240.36C94.32 253.67 100.73 258.76 100.73 258.76C115.08 281.94 137.85 288.91 152.56 288.6C167.27 288.29 179.01 280.9 185.04 267.7C199.7 258.03 200.95 239.64 195.75 231.06C198.349 216.854 199.976 202.487 200.62 188.06C202.386 184.373 202.858 180.198 201.96 176.21" stroke="white" stroke-width="2.81" stroke-linecap="round" stroke-linejoin="round"/>
<path d="M92.94 240.35C91.64 229.83 97.61 214.99 115.94 209.68" stroke="white" stroke-width="2.81" stroke-linecap="round" stroke-linejoin="round"/>
<path d="M195.75 231.05C193.25 225.69 186.75 221.95 182.65 221.33" stroke="white" stroke-width="2.81" stroke-linecap="round" stroke-linejoin="round"/>
<path d="M185.02 267.69C178.1 272.33 172.34 274.52 163.82 276.11" stroke="white" stroke-width="2.81" stroke-linecap="round" stroke-linejoin="round"/>
<path d="M147.31 133.38C172.49 129.83 192.58 130.67 191.49 124.23C190.55 118.72 165.08 121.11 146.27 123.71C127.46 126.31 100.83 130.79 103.63 138.71C105.57 144.22 120.8 137.12 147.31 133.38Z" stroke="white" stroke-width="2.81" stroke-linecap="round" stroke-linejoin="round"/>
<path d="M119.36 193.66C133.189 193.66 144.4 182.198 144.4 168.06C144.4 153.922 133.189 142.46 119.36 142.46C105.531 142.46 94.32 153.922 94.32 168.06C94.32 182.198 105.531 193.66 119.36 193.66Z" stroke="white" stroke-width="3.74" stroke-linecap="round" stroke-linejoin="round"/>
<path d="M115.26 188.74C125.869 188.74 134.47 179.951 134.47 169.11C134.47 158.269 125.869 149.48 115.26 149.48C104.651 149.48 96.05 158.269 96.05 169.11C96.05 179.951 104.651 188.74 115.26 188.74Z" stroke="white" stroke-width="3.27" stroke-linecap="round" stroke-linejoin="round"/>
<path d="M111.243 183.838C118.643 183.804 124.615 177.656 124.581 170.107C124.546 162.557 118.519 156.464 111.119 156.498C103.718 156.531 97.7467 162.679 97.781 170.228C97.8153 177.778 103.842 183.871 111.243 183.838Z" stroke="white" stroke-width="2.81" stroke-linecap="round" stroke-linejoin="round"/>
<path d="M107.372 178.994C111.594 178.824 114.876 175.21 114.703 170.922C114.53 166.634 110.967 163.296 106.746 163.467C102.524 163.637 99.2421 167.251 99.415 171.539C99.588 175.826 103.15 179.164 107.372 178.994Z" stroke="white" stroke-width="2.34" stroke-linecap="round" stroke-linejoin="round"/>
<path d="M179.28 187.6C194.506 187.6 206.85 175.592 206.85 160.78C206.85 145.968 194.506 133.96 179.28 133.96C164.054 133.96 151.71 145.968 151.71 160.78C151.71 175.592 164.054 187.6 179.28 187.6Z" stroke="white" stroke-width="3.74" stroke-linecap="round" stroke-linejoin="round"/>
<path d="M184.175 181.695C195.853 181.44 205.119 172.026 204.872 160.668C204.624 149.31 194.956 140.31 183.278 140.564C171.6 140.819 162.334 150.233 162.582 161.591C162.829 172.949 172.497 181.949 184.175 181.695Z" stroke="white" stroke-width="3.27" stroke-linecap="round" stroke-linejoin="round"/>
<path d="M189.089 175.745C197.214 175.234 203.397 168.412 202.9 160.508C202.402 152.604 195.413 146.611 187.288 147.122C179.164 147.633 172.981 154.455 173.478 162.359C173.975 170.263 180.965 176.257 189.089 175.745Z" stroke="white" stroke-width="2.81" stroke-linecap="round" stroke-linejoin="round"/>
<path d="M193.991 169.822C198.561 169.057 201.661 164.828 200.916 160.378C200.17 155.928 195.861 152.941 191.291 153.707C186.721 154.472 183.621 158.701 184.366 163.151C185.112 167.601 189.421 170.588 193.991 169.822Z" stroke="white" stroke-width="2.34" stroke-linecap="round" stroke-linejoin="round"/>
<path d="M200.56 189C199.88 200.94 199.24 208.21 197.88 217.63C204.39 216.49 209.37 210.35 209.37 202.92C209.432 199.991 208.629 197.108 207.062 194.633C205.495 192.157 203.234 190.198 200.56 189Z" stroke="white" stroke-width="2.81" stroke-linecap="round" stroke-linejoin="round"/>
<path d="M86.95 191.25C83.7735 191.997 80.9604 193.837 79.0023 196.447C77.0441 199.058 76.0653 202.273 76.2368 205.532C76.4083 208.79 77.7192 211.885 79.9406 214.276C82.162 216.666 85.1526 218.2 88.39 218.61C87.3081 209.532 86.8271 200.392 86.95 191.25V191.25Z" stroke="white" stroke-width="2.81" stroke-linecap="round" stroke-linejoin="round"/>
<path d="M100.83 170.66L105.2 173.9" stroke="white" stroke-width="2.81" stroke-linecap="round" stroke-linejoin="round"/>
<path d="M102.98 169.35L103.06 174.61" stroke="white" stroke-width="2.81" stroke-linecap="round" stroke-linejoin="round"/>
<path d="M105.44 170.97L100.6 173.59" stroke="white" stroke-width="2.81" stroke-linecap="round" stroke-linejoin="round"/>
<path d="M194.85 160.78L199.22 164.02" stroke="white" stroke-width="2.81" stroke-linecap="round" stroke-linejoin="round"/>
<path d="M196.99 159.48L197.07 164.74" stroke="white" stroke-width="2.81" stroke-linecap="round" stroke-linejoin="round"/>
<path d="M199.45 161.1L194.61 163.71" stroke="white" stroke-width="2.81" stroke-linecap="round" stroke-linejoin="round"/>
</g>
<defs>
<linearGradient id="paint0_linear_2_2" x1="12.37" y1="198.03" x2="253.41" y2="198.03" gradientUnits="userSpaceOnUse">
<stop stop-color="#FF00F3"/>
<stop offset="0.05" stop-color="#FF28F5"/>
<stop offset="0.15" stop-color="#FF68F8"/>
<stop offset="0.24" stop-color="#FF9EFA"/>
<stop offset="0.32" stop-color="#FFC8FC"/>
<stop offset="0.39" stop-color="#FFE6FE"/>
<stop offset="0.45" stop-color="#FFF8FF"/>
<stop offset="0.5" stop-color="white"/>
<stop offset="0.57" stop-color="#FBFFFE"/>
<stop offset="0.63" stop-color="#F0FFFB"/>
<stop offset="0.69" stop-color="#DDFFF6"/>
<stop offset="0.75" stop-color="#C3FFEF"/>
<stop offset="0.81" stop-color="#A1FFE6"/>
<stop offset="0.87" stop-color="#77FFDB"/>
<stop offset="0.93" stop-color="#46FFCE"/>
<stop offset="0.99" stop-color="#0EFFC0"/>
<stop offset="1" stop-color="#00FFBC"/>
</linearGradient>
<linearGradient id="paint1_linear_2_2" x1="1.36" y1="63.34" x2="258.59" y2="63.34" gradientUnits="userSpaceOnUse">
<stop stop-color="#FF00F3"/>
<stop offset="0.05" stop-color="#FF28F5"/>
<stop offset="0.15" stop-color="#FF68F8"/>
<stop offset="0.24" stop-color="#FF9EFA"/>
<stop offset="0.32" stop-color="#FFC8FC"/>
<stop offset="0.39" stop-color="#FFE6FE"/>
<stop offset="0.45" stop-color="#FFF8FF"/>
<stop offset="0.5" stop-color="white"/>
<stop offset="0.57" stop-color="#FBFFFE"/>
<stop offset="0.63" stop-color="#F0FFFB"/>
<stop offset="0.69" stop-color="#DDFFF6"/>
<stop offset="0.75" stop-color="#C3FFEF"/>
<stop offset="0.81" stop-color="#A1FFE6"/>
<stop offset="0.87" stop-color="#77FFDB"/>
<stop offset="0.93" stop-color="#46FFCE"/>
<stop offset="0.99" stop-color="#0EFFC0"/>
<stop offset="1" stop-color="#00FFBC"/>
</linearGradient>
<linearGradient id="paint2_linear_2_2" x1="-1.04001" y1="44.55" x2="251.66" y2="44.55" gradientUnits="userSpaceOnUse">
<stop stop-color="#FF00F3"/>
<stop offset="0.05" stop-color="#FF28F5"/>
<stop offset="0.15" stop-color="#FF68F8"/>
<stop offset="0.24" stop-color="#FF9EFA"/>
<stop offset="0.32" stop-color="#FFC8FC"/>
<stop offset="0.39" stop-color="#FFE6FE"/>
<stop offset="0.45" stop-color="#FFF8FF"/>
<stop offset="0.5" stop-color="white"/>
<stop offset="0.57" stop-color="#FBFFFE"/>
<stop offset="0.63" stop-color="#F0FFFB"/>
<stop offset="0.69" stop-color="#DDFFF6"/>
<stop offset="0.75" stop-color="#C3FFEF"/>
<stop offset="0.81" stop-color="#A1FFE6"/>
<stop offset="0.87" stop-color="#77FFDB"/>
<stop offset="0.93" stop-color="#46FFCE"/>
<stop offset="0.99" stop-color="#0EFFC0"/>
<stop offset="1" stop-color="#00FFBC"/>
</linearGradient>
<linearGradient id="paint3_linear_2_2" x1="4.89007" y1="147.66" x2="245.93" y2="147.66" gradientUnits="userSpaceOnUse">
<stop stop-color="#FF00F3"/>
<stop offset="0.05" stop-color="#FF28F5"/>
<stop offset="0.15" stop-color="#FF68F8"/>
<stop offset="0.24" stop-color="#FF9EFA"/>
<stop offset="0.32" stop-color="#FFC8FC"/>
<stop offset="0.39" stop-color="#FFE6FE"/>
<stop offset="0.45" stop-color="#FFF8FF"/>
<stop offset="0.5" stop-color="white"/>
<stop offset="0.57" stop-color="#FBFFFE"/>
<stop offset="0.63" stop-color="#F0FFFB"/>
<stop offset="0.69" stop-color="#DDFFF6"/>
<stop offset="0.75" stop-color="#C3FFEF"/>
<stop offset="0.81" stop-color="#A1FFE6"/>
<stop offset="0.87" stop-color="#77FFDB"/>
<stop offset="0.93" stop-color="#46FFCE"/>
<stop offset="0.99" stop-color="#0EFFC0"/>
<stop offset="1" stop-color="#00FFBC"/>
</linearGradient>
<linearGradient id="paint4_linear_2_2" x1="64.26" y1="257.15" x2="175.7" y2="91.38" gradientUnits="userSpaceOnUse">
<stop stop-color="#9300FC"/>
<stop offset="0.06" stop-color="#9300FC" stop-opacity="0.86"/>
<stop offset="0.16" stop-color="#9300FC" stop-opacity="0.6"/>
<stop offset="0.27" stop-color="#9300FC" stop-opacity="0.38"/>
<stop offset="0.36" stop-color="#9300FC" stop-opacity="0.22"/>
<stop offset="0.45" stop-color="#9300FC" stop-opacity="0.1"/>
<stop offset="0.52" stop-color="#9300FC" stop-opacity="0.03"/>
<stop offset="0.58" stop-color="#9300FC" stop-opacity="0"/>
</linearGradient>
<linearGradient id="paint5_linear_2_2" x1="246.25" y1="202.34" x2="83.25" y2="110.45" gradientUnits="userSpaceOnUse">
<stop stop-color="#00FFCE"/>
<stop offset="0.06" stop-color="#00FFCE" stop-opacity="0.84"/>
<stop offset="0.16" stop-color="#00FFCE" stop-opacity="0.59"/>
<stop offset="0.26" stop-color="#00FFCE" stop-opacity="0.38"/>
<stop offset="0.35" stop-color="#00FFCE" stop-opacity="0.22"/>
<stop offset="0.43" stop-color="#00FFCE" stop-opacity="0.1"/>
<stop offset="0.5" stop-color="#00FFCE" stop-opacity="0.03"/>
<stop offset="0.55" stop-color="#00FFCE" stop-opacity="0"/>
</linearGradient>
<clipPath id="clip0_2_2">
<rect width="262.04" height="300" fill="white"/>
</clipPath>
</defs>
</svg>
